# xmcd
#
# Track frame offsets:
#	150
#	14005
#	37970
#	52903
#	80380
#	97360
#	115288
#	134878
#	157573
#	175165
#
# Disc length: 2670 seconds
#
# Revision: 1
# Processed by: cddbd v1.4b42PL1 Copyright (c) Steve Scherf et al.
# Submitted via: audiograbber 1.80.04
#
DISCID=7e0a6c0a
DTITLE=Kaz Lux and John Schuursma - Kaz Lux LIVE DIALOGES John Schuursma
DYEAR=1981
DGENRE=
TTITLE0=Back to the Egg [2'59'']
TTITLE1=Piece of my Heart [5'12'']
TTITLE2=Sinner's Prayer [3'10'']
TTITLE3=Women [5'59'']
TTITLE4=Summertime [3'52'']
TTITLE5=Hey Joe [3'52'']
TTITLE6=Hiding [4'15'']
TTITLE7=Woman's Gone [4'56'']
TTITLE8=Dark Rose/ Tell Me Doctor [3'45'']
TTITLE9=Eli/Inspiration [2'59'']
EXTD=Early 80's Kaz Lux and John Schuursma gave a great number of concerts in t
EXTD=he Dutch clubcircuit.\nThis cd contains a number of live-recordings, which
EXTD=give a good impression of those performances.\nThe recordings were made i
EXTD=n 1981 - at 4 oktober in Café Oud Brabant in Oosterhout and at 29 november 
EXTD=in De Vestibule in Alkmaar.
EXTT0=Kaz Lux
EXTT1=Bert Berns and Jerry Ragavoy
EXTT2=Lowell Fulson
EXTT3=Kaz Lux
EXTT4=George Gershwin
EXTT5=Traditional
EXTT6=Steven Rhymer
EXTT7=Kaz Lux
EXTT8=Jan Akkerman and Kaz Lux
EXTT9=Jan Akkerman and Kaz Lux
PLAYORDER=
